<?xml version="1.0" encoding="iso-8859-1"?>
<!-- Generator: Adobe Illustrator 19.0.0, SVG Export Plug-In . SVG Version: 6.00 Build 0)  -->
<svg version="1.1" id="Layer_1" xmlns="http://www.w3.org/2000/svg" xmlns:xlink="http://www.w3.org/1999/xlink" x="0px" y="0px"
	 viewBox="0 0 458.32 458.32" style="enable-background:new 0 0 458.32 458.32;" xml:space="preserve">
<g>
	<g>
		<path d="M452.611,24.82c-3.605-2.844-8.314-3.877-12.781-2.813L229.16,72.4L18.49,22.008c-4.466-1.065-9.176-0.032-12.781,2.813
			C2.104,27.666,0,32.005,0,36.597v333.899c0,6.94,4.761,12.974,11.511,14.589c2.241,0.536,213.117,50.985,214.402,51.27
			c1.589,0.353,3.276,0.368,3.246,0.368h0.001c1.126,0,2.555-0.188,3.489-0.411l214.161-51.227c6.75-1.615,11.51-7.648,11.51-14.589
			V36.597C458.32,32.005,456.216,27.665,452.611,24.82z M212.161,318.549c-1.927,8.056-10.019,13.025-18.078,11.1L43.098,293.533
			c-8.057-1.928-13.026-10.021-11.099-18.078s10.02-13.023,18.078-11.1l150.985,36.115
			C209.119,302.398,214.088,310.492,212.161,318.549z M212.161,253.049c-1.927,8.056-10.019,13.025-18.078,11.1L43.098,228.033
			c-8.057-1.928-13.026-10.021-11.099-18.078s10.02-13.023,18.078-11.1l150.985,36.115
			C209.119,236.898,214.088,244.992,212.161,253.049z M212.161,187.549c-1.927,8.056-10.019,13.025-18.078,11.1L43.098,162.533
			c-8.057-1.928-13.026-10.021-11.099-18.078s10.02-13.023,18.078-11.1l150.985,36.115
			C209.119,171.398,214.088,179.492,212.161,187.549z M416.062,293.533l-150.985,36.115c-8.058,1.926-16.151-3.042-18.078-11.1
			c-1.927-8.057,3.042-16.15,11.099-18.078l150.985-36.115c8.059-1.924,16.151,3.042,18.078,11.1
			C429.088,283.512,424.119,291.605,416.062,293.533z M416.062,228.033l-150.985,36.115c-8.058,1.926-16.151-3.042-18.078-11.1
			c-1.927-8.057,3.042-16.15,11.099-18.078l150.985-36.115c8.059-1.925,16.151,3.042,18.078,11.1
			C429.088,218.012,424.119,226.105,416.062,228.033z M416.062,162.533l-150.985,36.115c-8.058,1.926-16.151-3.042-18.078-11.1
			c-1.927-8.057,3.042-16.15,11.099-18.078l150.985-36.115c8.059-1.926,16.151,3.042,18.078,11.1
			C429.088,152.512,424.119,160.605,416.062,162.533z"/>
	</g>
</g>
<g>
</g>
<g>
</g>
<g>
</g>
<g>
</g>
<g>
</g>
<g>
</g>
<g>
</g>
<g>
</g>
<g>
</g>
<g>
</g>
<g>
</g>
<g>
</g>
<g>
</g>
<g>
</g>
<g>
</g>
</svg>
