<?xml version='1.0' encoding='utf-8'?>
<!DOCTYPE svg PUBLIC '-//W3C//DTD SVG 1.1//EN' 'http://www.w3.org/Graphics/SVG/1.1/DTD/svg11.dtd'>
<svg version="1.1" xmlns="http://www.w3.org/2000/svg" viewBox="0 0 512 512" xmlns:xlink="http://www.w3.org/1999/xlink" enable-background="new 0 0 512 512">
  <g>
    <g>
      <path d="m194.8,286.5l46.8,51.6c7.8,8.5 22.6,8.5 30.4,0l46.8-51.6 119.8,128.7h-363.6l119.8-128.7zm-27.5-30.3l-115,123.5v-250.4l115,126.9zm89.5,38l-178.9-197.4h357.7l-178.8,197.4zm204.3-164.9v250.4l-115-123.5 115-126.9zm19.4-73.3h-449c-11.3,0-20.5,9.1-20.5,20.4v359.2c0,11.3 9.2,20.4 20.5,20.4h448.9c11.3,0 20.5-9.1 20.5-20.4v-359.2c0.1-11.3-9.1-20.4-20.4-20.4z"/>
    </g>
  </g>
</svg>
