<?xml version="1.0" encoding="iso-8859-1"?>
<!-- Generator: Adobe Illustrator 19.0.0, SVG Export Plug-In . SVG Version: 6.00 Build 0)  -->
<svg version="1.1" id="Layer_1" xmlns="http://www.w3.org/2000/svg" xmlns:xlink="http://www.w3.org/1999/xlink" x="0px" y="0px"
	 viewBox="0 0 512 512" style="enable-background:new 0 0 512 512;" xml:space="preserve">
<g>
	<g>
		<path d="M480,309.333c0-15.125-31.168-70.912-46.72-97.813c1.451-7.68,4.053-25.237,4.053-51.52c0-45.547-60.288-160-202.667-160
			C94.869,0,32,106.048,32,181.333c0,53.248,31.445,107.819,56.725,151.616c14.72,25.515,28.608,49.621,28.608,61.717
			c0,27.157-44.16,80.981-61.184,99.435c-2.859,3.115-3.627,7.616-1.92,11.499c1.707,3.904,5.525,6.4,9.771,6.4h234.667
			c5.888,0,10.368-3.115,10.368-9.003c3.776-7.616,41.664-28.075,76.672-33.813c26.283-4.288,62.272-10.197,62.272-42.517
			c0-14.059-4.864-21.312-8.085-26.112c-2.155-3.221-2.581-4.011-3.904-5.973c5.909,0.832,11.179-3.413,11.904-9.259
			c0.277-2.261-0.171-4.459-1.173-6.336l8.789-8.789c2.859-2.859,3.861-7.083,2.581-10.923l-7.125-21.376
			C463.253,333.675,480,324.971,480,309.333z"/>
	</g>
</g>
<g>
</g>
<g>
</g>
<g>
</g>
<g>
</g>
<g>
</g>
<g>
</g>
<g>
</g>
<g>
</g>
<g>
</g>
<g>
</g>
<g>
</g>
<g>
</g>
<g>
</g>
<g>
</g>
<g>
</g>
</svg>
